<svg width="128" height="55" viewBox="0 0 128 55" fill="none" xmlns="http://www.w3.org/2000/svg">
<g filter="url(#filter0_d_65_9)">
<g filter="url(#filter1_d_65_9)">
<path d="M13.54 45.3L12.82 45.54C12.26 45.74 11.6 45.88 10.84 45.96C10.12 46 9.66 46.02 9.46 46.02C9.34 46.02 9.06 46 8.62 45.96C8.22 45.88 7.92 45.84 7.72 45.84C7.6 45.84 7.44 45.94 7.24 46.14L4.54 45.18C4.54 44.98 4.54 44.8 4.54 44.64C4.58 44.48 4.62 44.3 4.66 44.1C4.74 43.54 4.8 43.02 4.84 42.54C4.92 42.02 4.92 41.54 4.84 41.1C5.16 40.78 5.2 39.8 4.96 38.16C4.72 36.48 4.6 35.42 4.6 34.98C4.6 34.86 4.64 34.54 4.72 34.02C4.8 33.5 4.88 33.04 4.96 32.64C5 32.52 5.08 32.36 5.2 32.16C5.36 31.96 5.44 31.74 5.44 31.5C5.36 30.34 5.4 29.4 5.56 28.68C5.76 27.92 5.82 27.16 5.74 26.4C5.7 26.2 5.72 26 5.8 25.8C5.88 25.6 5.92 25.34 5.92 25.02V23.04C5.92 22.48 5.92 21.86 5.92 21.18C5.92 20.46 5.94 19.64 5.98 18.72C6.02 16.92 6.04 15.72 6.04 15.12C6.08 14.52 6.14 14.1 6.22 13.86C6.26 13.46 6.36 13.14 6.52 12.9C6.72 12.66 6.82 12.26 6.82 11.7C6.82 11.66 6.74 11.54 6.58 11.34C6.46 11.14 6.3 10.88 6.1 10.56C5.98 10.4 5.9 10.2 5.86 9.96C5.82 9.72 5.8 9.5 5.8 9.3C5.84 9.06 5.86 8.86 5.86 8.7C5.9 8.54 5.92 8.08 5.92 7.32C7 7 8.1 6.84 9.22 6.84C10.34 6.84 11.24 6.8 11.92 6.72C12.16 6.68 12.34 6.64 12.46 6.6C12.62 6.56 12.76 6.54 12.88 6.54C13 6.5 13.14 6.48 13.3 6.48C13.5 6.44 13.78 6.42 14.14 6.42C14.3 6.82 14.52 7.26 14.8 7.74C15.08 8.22 15.3 8.66 15.46 9.06C15.98 9.78 16.48 10.12 16.96 10.08C17.44 10.04 17.88 9.86 18.28 9.54C18.72 9.22 19.08 8.88 19.36 8.52C19.64 8.12 19.82 7.92 19.9 7.92L26.68 7.98L31.84 11.52C32.04 11.72 32.3 11.96 32.62 12.24C32.94 12.48 33.28 12.82 33.64 13.26C34.44 14.1 35.04 14.5 35.44 14.46L36.88 16.56C36.8 16.68 36.62 17.04 36.34 17.64C36.1 18.2 35.74 19 35.26 20.04C34.34 22.2 33.88 23.88 33.88 25.08L32.68 25.8C31.88 26.12 31.48 26.94 31.48 28.26C30.8 28.18 29.68 28.44 28.12 29.04C27.68 29.24 27.2 29.38 26.68 29.46C26.16 29.5 25.68 29.54 25.24 29.58C24.96 29.62 24.68 29.64 24.4 29.64C24.16 29.64 23.9 29.64 23.62 29.64L22.96 31.14C22.48 30.78 21.94 30.54 21.34 30.42C20.74 30.3 20.14 30.26 19.54 30.3C18.98 30.34 18.44 30.42 17.92 30.54C17.4 30.66 16.96 30.8 16.6 30.96C15.28 31.44 14.6 31.68 14.56 31.68H14.2C14.24 31.72 14.26 31.78 14.26 31.86C14.18 32.26 14.04 32.74 13.84 33.3C13.68 33.82 13.6 34.18 13.6 34.38C13.6 34.62 13.62 34.96 13.66 35.4C13.7 35.8 13.74 36.34 13.78 37.02C13.82 37.66 13.84 38.2 13.84 38.64C13.88 39.08 13.9 39.42 13.9 39.66L14.14 41.28C14.22 41.6 14.28 41.92 14.32 42.24C14.36 42.52 14.42 42.82 14.5 43.14L13.54 45.3ZM15.76 13.14C15.76 13.46 15.76 13.84 15.76 14.28C15.8 14.72 15.84 15.22 15.88 15.78C16.08 18.26 16.14 19.74 16.06 20.22C15.26 20.7 14.78 21.42 14.62 22.38C14.5 22.9 14.38 23.4 14.26 23.88C14.14 24.32 14 24.7 13.84 25.02L13.72 25.14C13.72 25.58 13.72 25.9 13.72 26.1C13.76 26.3 13.78 26.54 13.78 26.82L14.92 27.6L16.06 27.3C16.06 28.18 17.14 28.16 19.3 27.24C21.42 26.36 22.62 25.92 22.9 25.92H25.42C25.74 25.48 26.12 25.02 26.56 24.54C27 24.02 27.22 23.7 27.22 23.58L28 19.2L27.64 17.7L19.66 12H17.02L15.76 13.14ZM33.16 45.42C33.08 45.06 32.84 44.82 32.44 44.7C32.28 44.54 32.22 44.32 32.26 44.04C32.3 43.76 32.26 43.58 32.14 43.5C32.1 43.42 32.06 43.38 32.02 43.38C31.98 43.38 31.92 43.36 31.84 43.32C31.8 43.24 31.68 43.1 31.48 42.9C31.36 42.74 31.22 42.58 31.06 42.42C30.9 42.22 30.72 41.96 30.52 41.64C30.08 41.08 29.74 40.64 29.5 40.32C29.26 39.96 29.08 39.74 28.96 39.66C28.8 39.58 28.56 39.42 28.24 39.18C27.92 38.94 27.7 38.8 27.58 38.76C27.46 38.64 27.36 38.5 27.28 38.34C27.2 38.18 27.12 38.06 27.04 37.98C26.96 37.9 26.86 37.62 26.74 37.14C26.62 36.66 26.5 36.24 26.38 35.88C25.94 35.48 25.28 34.76 24.4 33.72C24.12 33.44 23.96 33.26 23.92 33.18L24.7 32.04L27.58 33.48C27.62 33.52 27.82 33.52 28.18 33.48C28.58 33.44 29 33.42 29.44 33.42C29.88 33.38 30.3 33.38 30.7 33.42C31.14 33.46 31.42 33.58 31.54 33.78C31.7 33.98 31.9 34.12 32.14 34.2C32.38 34.28 32.62 34.36 32.86 34.44C33.14 34.48 33.36 34.52 33.52 34.56C33.72 34.6 33.84 34.68 33.88 34.8L35.08 37.02C35.24 37.22 35.52 37.56 35.92 38.04C36.36 38.48 36.94 39.1 37.66 39.9C39.1 41.58 39.84 42.44 39.88 42.48L39.7 44.58L34.9 45.96L33.16 45.42Z" fill="black"/>
</g>
<g filter="url(#filter2_d_65_9)">
<path d="M37.84 28.9C37.84 29.2333 37.7067 29.5467 37.44 29.84C37.1733 30.12 36.88 30.26 36.56 30.26C36.1867 30.26 35.8467 30.16 35.54 29.96C35.2333 29.7467 35.08 29.48 35.08 29.16C35.08 28.6533 35.1733 28.28 35.36 28.04C35.56 27.8 35.8533 27.68 36.24 27.68C36.6933 27.68 37.0733 27.7933 37.38 28.02C37.6867 28.2333 37.84 28.5267 37.84 28.9ZM39.1419 18.34C39.1419 17.7667 39.5619 17.48 40.4019 17.48C40.7619 17.48 41.4485 17.4933 42.4619 17.52C43.5819 17.5733 44.4285 17.6 45.0019 17.6C45.4685 17.6 46.0352 17.5733 46.7019 17.52C47.1552 17.4933 47.4419 17.48 47.5619 17.48C48.2952 17.5067 48.9152 17.64 49.4219 17.88C49.5685 17.9467 49.6885 18.0267 49.7819 18.12C49.8752 18.2133 49.9219 18.3667 49.9219 18.58C49.9219 18.8733 49.8285 19.1267 49.6419 19.34C49.4552 19.54 49.2285 19.64 48.9619 19.64C48.6685 19.64 48.2419 19.6 47.6819 19.52C47.1885 19.4267 46.7552 19.38 46.3819 19.38C46.0219 19.38 45.7485 19.3867 45.5619 19.4C45.5219 19.84 45.5019 20.8933 45.5019 22.56C45.5019 24.5467 45.5619 26.56 45.6819 28.6L45.7219 29.18C45.7219 29.7267 45.4085 30 44.7819 30C44.2885 30 43.9552 29.8867 43.7819 29.66C43.6085 29.42 43.5219 29.06 43.5219 28.58C43.5219 27.6333 43.4952 26.4533 43.4419 25.04C43.3885 23.8667 43.3619 23.0333 43.3619 22.54C43.3619 22.2067 43.4019 21.1867 43.4819 19.48L41.1419 19.5C40.3952 19.5 39.8752 19.4333 39.5819 19.3C39.2885 19.1533 39.1419 18.8333 39.1419 18.34ZM52.2128 17.16C52.6795 17.2 53.0861 17.3267 53.4328 17.54C53.7795 17.74 53.9528 18.0467 53.9528 18.46C53.9528 18.7667 53.8061 19.0133 53.5128 19.2C53.2328 19.3733 52.8928 19.46 52.4928 19.46C52.1061 19.46 51.8395 19.36 51.6928 19.16C51.5461 18.96 51.4728 18.7533 51.4728 18.54C51.4728 18.14 51.5128 17.8067 51.5928 17.54C51.6861 17.2733 51.8928 17.1467 52.2128 17.16ZM53.8128 26.02V26.6C53.8128 27.12 53.8261 27.6133 53.8528 28.08C53.8928 28.5333 53.9395 28.9933 53.9928 29.46C53.9795 29.5933 53.8795 29.7333 53.6928 29.88C53.5061 30.0133 53.3395 30.08 53.1928 30.08C52.9395 30.08 52.6795 30.0333 52.4128 29.94C52.1595 29.8333 52.0061 29.7067 51.9528 29.56C51.8728 29.1333 51.8328 28.7533 51.8328 28.42C51.8328 27.3267 51.7995 26.1 51.7328 24.74C51.6795 23.54 51.6528 22.7 51.6528 22.22C51.6528 21.98 51.7728 21.7733 52.0128 21.6C52.2528 21.4267 52.5061 21.34 52.7728 21.34C53.1595 21.34 53.4261 21.4267 53.5728 21.6C53.7328 21.7733 53.8128 22.0467 53.8128 22.42V26.02ZM68.93 29.3C68.73 28.9267 68.6033 28.5133 68.55 28.06C68.4967 27.5933 68.47 26.9533 68.47 26.14C68.47 25.3667 68.3633 24.6933 68.15 24.12C67.9367 23.5467 67.4967 23.26 66.83 23.26C66.5767 23.26 66.3233 23.34 66.07 23.5C65.83 23.6467 65.65 23.8333 65.53 24.06C65.3433 24.42 65.2167 24.8133 65.15 25.24C65.0833 25.6533 65.05 26.1333 65.05 26.68C65.05 27.0267 65.07 27.38 65.11 27.74C65.11 27.8467 65.1167 28.02 65.13 28.26C65.1567 28.4867 65.17 28.6933 65.17 28.88C65.17 29.68 64.89 30.08 64.33 30.08C63.5967 30.08 63.21 29.6933 63.17 28.92C63.17 28.3733 63.1767 28.08 63.19 28.04V27.18C63.19 26.7 63.17 26.2333 63.13 25.78C63.09 25.3267 63.0433 24.9867 62.99 24.76C62.87 24.32 62.71 23.98 62.51 23.74C62.3233 23.5 62.0233 23.38 61.61 23.38C61.0233 23.38 60.55 23.6333 60.19 24.14C59.9367 24.54 59.77 25.0267 59.69 25.6C59.61 26.3333 59.55 26.9133 59.51 27.34C59.4833 27.7533 59.47 28.2333 59.47 28.78C59.47 29.1667 59.4033 29.48 59.27 29.72C59.15 29.96 58.9167 30.08 58.57 30.08C58.3167 30.08 58.05 30.0133 57.77 29.88C57.5033 29.7333 57.37 29.54 57.37 29.3C57.37 29.0467 57.3967 28.7933 57.45 28.54C57.57 27.78 57.63 26.42 57.63 24.46C57.63 24.14 57.55 23.8333 57.39 23.54C57.2433 23.2333 57.0633 23.08 56.85 23.08C56.7967 23.08 56.6967 23.1067 56.55 23.16C56.4167 23.2133 56.3167 23.24 56.25 23.24C56.0767 23.24 55.9167 23.16 55.77 23C55.6367 22.84 55.57 22.7067 55.57 22.6C55.57 22.2667 55.73 21.9867 56.05 21.76C56.3833 21.52 56.73 21.4 57.09 21.4C57.5833 21.4 58.0033 21.5533 58.35 21.86C58.6967 22.1667 58.9633 22.5933 59.15 23.14C59.4567 22.6067 59.87 22.18 60.39 21.86C60.91 21.5267 61.49 21.36 62.13 21.36C62.53 21.36 62.85 21.4133 63.09 21.52C63.3433 21.6133 63.55 21.7533 63.71 21.94C63.87 22.1133 64.0767 22.38 64.33 22.74C64.6633 22.3133 65.09 21.98 65.61 21.74C66.1433 21.5 66.69 21.38 67.25 21.38C67.9167 21.38 68.5167 21.6533 69.05 22.2C69.5833 22.7333 69.9433 23.3533 70.13 24.06C70.2233 24.42 70.27 25.1133 70.27 26.14L70.35 27.3C70.4167 27.9933 70.6433 28.4133 71.03 28.56C71.4833 28.6933 71.71 28.8333 71.71 28.98C71.71 29.3 71.63 29.5333 71.47 29.68C71.35 29.76 71.1833 29.8467 70.97 29.94C70.7567 30.0333 70.59 30.08 70.47 30.08C69.75 30.08 69.2367 29.82 68.93 29.3ZM73.6064 26.4C73.6064 25.6533 73.6131 25.0867 73.6264 24.7L73.6464 22.8C73.6464 22.0267 73.6264 21.18 73.5864 20.26C73.5731 19.98 73.5264 19.5933 73.4464 19.1C73.3397 18.3533 73.2864 17.7933 73.2864 17.42C73.2864 16.8067 73.5931 16.5 74.2064 16.5C74.5931 16.5 74.8664 16.6067 75.0264 16.82C75.1997 17.02 75.3197 17.34 75.3864 17.78C75.5197 18.7 75.5864 19.78 75.5864 21.02C75.5864 21.3933 75.5731 21.9533 75.5464 22.7C75.7997 22.3 76.1264 21.9867 76.5264 21.76C76.9397 21.5333 77.3464 21.42 77.7464 21.42C78.9064 21.42 79.9064 21.9 80.7464 22.86C80.9731 23.1933 81.1731 23.5933 81.3464 24.06C81.5331 24.5133 81.6264 24.9067 81.6264 25.24C81.6264 25.8267 81.5597 26.3667 81.4264 26.86C81.3064 27.3533 81.0864 27.8333 80.7664 28.3C80.4464 28.7667 80.0397 29.1467 79.5464 29.44C79.0664 29.7333 78.5064 29.88 77.8664 29.88C77.3064 29.88 76.7997 29.7667 76.3464 29.54C75.9064 29.3133 75.5531 29.0133 75.2864 28.64C75.2197 28.9733 75.0731 29.3067 74.8464 29.64C74.6197 29.96 74.3597 30.12 74.0664 30.12C73.8264 30.12 73.6264 30.06 73.4664 29.94C73.3064 29.8067 73.2264 29.6133 73.2264 29.36C73.2264 29.1733 73.2664 28.94 73.3464 28.66C73.4264 28.2733 73.4864 27.92 73.5264 27.6C73.5797 27.2667 73.6064 26.8667 73.6064 26.4ZM77.3664 28.22C78.0197 28.22 78.5664 27.9933 79.0064 27.54C79.4464 27.0733 79.6664 26.4467 79.6664 25.66C79.6664 24.94 79.4731 24.32 79.0864 23.8C78.9531 23.6267 78.7597 23.4867 78.5064 23.38C78.2664 23.2733 78.0264 23.22 77.7864 23.22C77.2264 23.22 76.7531 23.3867 76.3664 23.72C75.9797 24.04 75.7597 24.4867 75.7064 25.06C75.6531 25.8333 75.6264 26.5 75.6264 27.06C75.7864 27.3667 76.0264 27.64 76.3464 27.88C76.6797 28.1067 77.0197 28.22 77.3664 28.22ZM84.377 21.32C85.257 21.32 85.697 21.9 85.697 23.06C85.697 23.2067 85.6837 23.5333 85.657 24.04C85.6304 24.6267 85.617 25.0867 85.617 25.42C85.617 26.3533 85.7437 27.1067 85.997 27.68C86.0904 27.8667 86.257 28.0133 86.497 28.12C86.7504 28.2267 86.9637 28.28 87.137 28.28C87.4037 28.28 87.6237 28.2467 87.797 28.18C87.9704 28.1133 88.1304 28.0133 88.277 27.88C88.437 27.7467 88.5904 27.6 88.737 27.44C88.9904 27.16 89.1504 26.84 89.217 26.48C89.297 26.1067 89.3437 25.6133 89.357 25C89.357 24.6133 89.377 24.24 89.417 23.88C89.497 23.2933 89.537 22.7467 89.537 22.24C89.537 21.96 89.6104 21.7267 89.757 21.54C89.917 21.34 90.1437 21.24 90.437 21.24C90.5837 21.24 90.757 21.2933 90.957 21.4C91.1704 21.4933 91.3104 21.6 91.377 21.72C91.4704 21.88 91.517 22.1 91.517 22.38C91.517 22.5533 91.497 22.7133 91.457 22.86C91.3904 23.06 91.357 23.3133 91.357 23.62C91.357 23.78 91.3704 24.0467 91.397 24.42C91.437 24.7 91.457 24.9867 91.457 25.28C91.457 26.1733 91.5237 26.8333 91.657 27.26C91.8037 27.7133 92.0037 28.1133 92.257 28.46C92.5237 28.74 92.7037 28.9467 92.797 29.08C92.8904 29.2 92.937 29.3067 92.937 29.4C92.937 29.56 92.857 29.7133 92.697 29.86C92.537 30.0067 92.3704 30.08 92.197 30.08C91.7037 30.08 91.2704 29.9133 90.897 29.58C90.537 29.2333 90.2704 28.7933 90.097 28.26C89.9504 28.4333 89.757 28.6467 89.517 28.9C89.277 29.1533 89.0504 29.36 88.837 29.52C88.317 29.8933 87.6504 30.08 86.837 30.08C86.5037 30.08 86.137 29.98 85.737 29.78C85.3504 29.58 84.997 29.32 84.677 29C84.357 28.6667 84.137 28.3133 84.017 27.94C84.0037 27.9133 83.9637 27.8067 83.897 27.62C83.8437 27.4333 83.817 27.1533 83.817 26.78L83.797 23.58C83.797 23.3933 83.7504 23.1 83.657 22.7C83.577 22.4333 83.537 22.2333 83.537 22.1C83.537 21.8733 83.6104 21.6867 83.757 21.54C83.917 21.3933 84.1237 21.32 84.377 21.32ZM95.975 30.08C95.7083 30.08 95.4817 30.0333 95.295 29.94C95.1083 29.8467 94.995 29.7467 94.955 29.64C94.8083 29.1067 94.735 28.4067 94.735 27.54C94.735 25.94 94.7617 24.64 94.815 23.64C94.8683 22.4533 94.895 21.3133 94.895 20.22C94.895 19.9 94.855 19.4333 94.775 18.82C94.7617 18.7133 94.7417 18.52 94.715 18.24C94.6883 17.96 94.675 17.7 94.675 17.46C94.675 17.1667 94.775 16.9333 94.975 16.76C95.1883 16.5867 95.4617 16.5 95.795 16.5C96.0617 16.5 96.275 16.5867 96.435 16.76C96.6083 16.92 96.695 17.14 96.695 17.42C96.695 17.8467 96.7083 18.4467 96.735 19.22C96.7617 19.94 96.775 20.48 96.775 20.84C96.775 21.24 96.7617 21.7733 96.735 22.44C96.7083 22.84 96.695 23.1333 96.695 23.32C96.695 23.9067 96.7017 24.3933 96.715 24.78C97.2083 24.2867 97.855 23.7067 98.655 23.04C99.455 22.3733 100.075 21.9067 100.515 21.64C100.982 21.36 101.288 21.22 101.435 21.22C101.715 21.22 101.955 21.28 102.155 21.4C102.355 21.52 102.455 21.6933 102.455 21.92C102.455 22.1467 102.422 22.3267 102.355 22.46C102.288 22.5933 102.168 22.7267 101.995 22.86L99.735 24.52C99.9617 24.6133 100.175 24.82 100.375 25.14C100.588 25.46 100.842 25.8933 101.135 26.44C101.468 27.0667 101.742 27.5333 101.955 27.84C102.182 28.1467 102.408 28.3 102.635 28.3L103.135 28.28C103.228 28.28 103.308 28.3333 103.375 28.44C103.455 28.5467 103.495 28.7 103.495 28.9C103.495 29.2067 103.342 29.4533 103.035 29.64C102.742 29.8267 102.408 29.92 102.035 29.92C101.515 29.92 101.055 29.72 100.655 29.32C100.255 28.9067 99.875 28.3533 99.515 27.66L99.075 26.78C98.8883 26.4067 98.7417 26.14 98.635 25.98C98.5417 25.82 98.4283 25.7133 98.295 25.66L96.695 26.94L96.775 29.12C96.775 29.4667 96.6817 29.7133 96.495 29.86C96.3217 30.0067 96.1483 30.08 95.975 30.08ZM104.767 23.08C104.58 23.0533 104.427 22.9733 104.307 22.84C104.2 22.7067 104.147 22.5467 104.147 22.36C104.147 22.2667 104.167 22.1667 104.207 22.06C104.26 21.9533 104.334 21.86 104.427 21.78C104.6 21.6067 105.067 21.52 105.827 21.52C105.934 21 105.987 20.4733 105.987 19.94C105.987 19.74 105.98 19.5667 105.967 19.42C105.954 19.2733 105.947 19.16 105.947 19.08C105.947 18.7867 106.054 18.5667 106.267 18.42C106.494 18.2733 106.747 18.2 107.027 18.2C107.374 18.2 107.607 18.2867 107.727 18.46C107.86 18.6333 107.927 18.9533 107.927 19.42C107.927 20.1133 107.867 20.7933 107.747 21.46C107.96 21.46 108.254 21.4467 108.627 21.42C109.134 21.3933 109.5 21.38 109.727 21.38C109.954 21.38 110.147 21.44 110.307 21.56C110.48 21.6667 110.567 21.82 110.567 22.02C110.567 22.54 110.334 22.8467 109.867 22.94C109.374 23.06 108.607 23.1333 107.567 23.16C107.527 23.68 107.507 24.2467 107.507 24.86C107.507 25.82 107.567 26.6067 107.687 27.22C107.767 27.6467 107.9 27.96 108.087 28.16C108.287 28.3467 108.58 28.44 108.967 28.44C109.194 28.44 109.427 28.38 109.667 28.26C109.827 28.1667 109.974 28.12 110.107 28.12C110.294 28.12 110.427 28.18 110.507 28.3C110.6 28.42 110.647 28.58 110.647 28.78C110.647 29.1533 110.447 29.4667 110.047 29.72C109.647 29.96 109.134 30.08 108.507 30.08C108.12 30.08 107.727 29.9867 107.327 29.8C106.94 29.6133 106.614 29.38 106.347 29.1C106.307 29.06 106.234 28.9067 106.127 28.64C106.02 28.3733 105.927 28.0867 105.847 27.78C105.714 27.1533 105.647 26.2733 105.647 25.14C105.647 24.6467 105.674 23.9867 105.727 23.16L104.767 23.08ZM112.067 23.26C111.96 23.26 111.867 23.22 111.787 23.14C111.707 23.0467 111.667 22.94 111.667 22.82C111.667 22.4333 111.793 22.14 112.047 21.94C112.3 21.7267 112.613 21.62 112.987 21.62C113.507 21.62 113.953 21.76 114.327 22.04C114.713 22.3067 114.907 22.6933 114.907 23.2C114.907 23.3333 114.88 23.84 114.827 24.72C114.773 25.7333 114.747 26.4067 114.747 26.74C114.747 27.2067 114.833 27.5867 115.007 27.88C115.193 28.16 115.48 28.3 115.867 28.3C116.613 28.3 117.187 27.8867 117.587 27.06C118 26.22 118.273 25.1933 118.407 23.98C118.46 23.4467 118.54 22.8867 118.647 22.3C118.7 21.98 118.773 21.7467 118.867 21.6C118.96 21.4533 119.14 21.38 119.407 21.38C119.58 21.38 119.78 21.42 120.007 21.5C120.247 21.58 120.4 21.6867 120.467 21.82C120.547 22.02 120.587 22.24 120.587 22.48C120.587 22.8133 120.54 23.2467 120.447 23.78C120.34 24.3133 120.267 24.8933 120.227 25.52C120.2 26.08 120.287 26.6667 120.487 27.28C120.687 27.8933 120.973 28.2933 121.347 28.48C121.773 28.6933 121.987 28.8867 121.987 29.06C121.987 29.34 121.887 29.56 121.687 29.72C121.487 29.88 121.293 29.96 121.107 29.96C120.613 29.96 120.167 29.78 119.767 29.42C119.38 29.06 119.1 28.6133 118.927 28.08C118.647 28.5067 118.373 28.86 118.107 29.14C117.853 29.4067 117.527 29.6333 117.127 29.82C116.727 29.9933 116.233 30.08 115.647 30.08C114.953 30.08 114.32 29.8333 113.747 29.34C113.187 28.8467 112.907 28 112.907 26.8C112.907 26.4667 112.913 26.1133 112.927 25.74C112.953 25.3667 112.967 25.1 112.967 24.94C113.007 24.46 113.027 24.02 113.027 23.62C113.027 23.5 112.98 23.4 112.887 23.32C112.807 23.24 112.713 23.2 112.607 23.2C112.527 23.2 112.433 23.2133 112.327 23.24C112.233 23.2533 112.147 23.26 112.067 23.26Z" fill="black"/>
</g>
<g filter="url(#filter3_d_65_9)">
<path d="M42.45 40.88C42.45 40.6267 42.4967 40.3733 42.59 40.12C42.6833 39.86 42.8067 39.6233 42.96 39.41C43.1133 39.1967 43.3567 39.0233 43.69 38.89C44.0233 38.75 44.32 38.68 44.58 38.68C44.8467 38.68 45.1167 38.7167 45.39 38.79C45.67 38.8633 45.8633 38.9767 45.97 39.13C46.2167 39.4767 46.34 39.8167 46.34 40.15C46.34 40.33 46.3 40.4833 46.22 40.61C46.1467 40.7367 46.04 40.8733 45.9 41.02C45.7867 41.14 45.6067 41.22 45.36 41.26C45.12 41.3 44.88 41.32 44.64 41.32C44.4867 41.32 44.3 41.3067 44.08 41.28C43.86 41.2467 43.6467 41.2067 43.44 41.16C43.4533 41.2933 43.4867 41.4233 43.54 41.55C43.5933 41.6767 43.6567 41.7733 43.73 41.84C43.8633 41.9667 44 42.0467 44.14 42.08C44.2867 42.1133 44.4733 42.13 44.7 42.13C44.94 42.13 45.1633 42.09 45.37 42.01C45.5367 41.95 45.6733 41.92 45.78 41.92C45.9067 41.92 46.0033 41.96 46.07 42.04C46.1367 42.1133 46.17 42.21 46.17 42.33C46.17 42.4967 46.0733 42.6333 45.88 42.74C45.6867 42.8467 45.4633 42.9267 45.21 42.98C44.9633 43.0267 44.7633 43.05 44.61 43.05C44.2967 43.05 43.9933 42.9933 43.7 42.88C43.4067 42.7667 43.1633 42.6067 42.97 42.4C42.81 42.2133 42.6833 41.99 42.59 41.73C42.4967 41.4633 42.45 41.18 42.45 40.88ZM44.63 39.53C44.4833 39.53 44.3367 39.56 44.19 39.62C44.0433 39.6733 43.9233 39.75 43.83 39.85C43.71 39.9767 43.6267 40.08 43.58 40.16C43.54 40.2333 43.5133 40.3367 43.5 40.47C43.6667 40.5233 44.0133 40.55 44.54 40.55C44.8267 40.55 45.0467 40.5067 45.2 40.42C45.36 40.3333 45.44 40.22 45.44 40.08C45.44 39.94 45.3533 39.8133 45.18 39.7C45.0067 39.5867 44.8233 39.53 44.63 39.53ZM51.0956 43.04C50.869 43.04 50.6956 43.0067 50.5756 42.94C50.4556 42.8667 50.3256 42.7333 50.1856 42.54C50.0123 42.6933 49.7523 42.8167 49.4056 42.91C49.0656 43.0033 48.7723 43.05 48.5256 43.05C48.119 43.05 47.789 42.94 47.5356 42.72C47.289 42.4933 47.1656 42.1633 47.1656 41.73C47.1656 41.5433 47.2156 41.3733 47.3156 41.22C47.4223 41.06 47.559 40.92 47.7256 40.8C47.9123 40.6733 48.1323 40.5733 48.3856 40.5C48.6456 40.4267 48.8823 40.39 49.0956 40.39C49.4556 40.39 49.7756 40.4233 50.0556 40.49V40.48C50.0556 40.12 49.9656 39.8733 49.7856 39.74C49.6123 39.6 49.3323 39.53 48.9456 39.53C48.699 39.53 48.4856 39.64 48.3056 39.86C48.239 39.9467 48.099 39.99 47.8856 39.99C47.779 39.99 47.699 39.9467 47.6456 39.86C47.599 39.7667 47.5756 39.6733 47.5756 39.58C47.5756 39.3867 47.6556 39.22 47.8156 39.08C47.9823 38.94 48.1823 38.8367 48.4156 38.77C48.649 38.6967 48.8656 38.66 49.0656 38.66C49.259 38.66 49.489 38.7 49.7556 38.78C50.0223 38.86 50.239 38.9667 50.4056 39.1C50.6056 39.2733 50.759 39.4767 50.8656 39.71C50.979 39.9367 51.0356 40.1867 51.0356 40.46C51.0356 40.5467 51.029 40.6767 51.0156 40.85C51.0023 41.05 50.9956 41.2133 50.9956 41.34C50.9956 41.4 50.989 41.4767 50.9756 41.57C50.9623 41.69 50.9556 41.79 50.9556 41.87C50.9556 41.9567 50.9823 42.04 51.0356 42.12C51.089 42.2 51.1623 42.2667 51.2556 42.32C51.3423 42.3667 51.399 42.4167 51.4256 42.47C51.4523 42.5233 51.4656 42.5833 51.4656 42.65C51.4656 42.7167 51.4223 42.8 51.3356 42.9C51.2556 42.9933 51.1756 43.04 51.0956 43.04ZM49.0956 41.13C48.8356 41.13 48.6056 41.18 48.4056 41.28C48.2056 41.38 48.1056 41.5567 48.1056 41.81C48.1056 41.9367 48.149 42.0433 48.2356 42.13C48.329 42.2167 48.429 42.26 48.5356 42.26C48.8223 42.26 49.0623 42.23 49.2556 42.17C49.449 42.11 49.6823 42 49.9556 41.84C49.989 41.7333 50.009 41.5833 50.0156 41.39C50.0156 41.3167 50.019 41.26 50.0256 41.22C49.6656 41.16 49.3556 41.13 49.0956 41.13ZM56.2075 36.74C56.2075 36.8067 56.1908 36.99 56.1575 37.29C56.0842 38.0233 56.0475 38.7667 56.0475 39.52C56.0475 40.18 56.0575 40.6833 56.0775 41.03C56.0975 41.3767 56.1475 41.6433 56.2275 41.83C56.3075 42.01 56.4308 42.1 56.5975 42.1C56.9175 42.1 57.0775 42.2067 57.0775 42.42C57.0775 42.56 57.0075 42.68 56.8675 42.78C56.7275 42.8733 56.5742 42.92 56.4075 42.92C56.2075 42.92 56.0208 42.8733 55.8475 42.78C55.6742 42.6867 55.5375 42.5433 55.4375 42.35C55.2975 42.5567 55.0942 42.7233 54.8275 42.85C54.5675 42.97 54.3142 43.03 54.0675 43.03C53.6875 43.03 53.3508 42.95 53.0575 42.79C52.7642 42.63 52.5375 42.4133 52.3775 42.14C52.2175 41.86 52.1375 41.5533 52.1375 41.22C52.1375 40.9 52.1742 40.5933 52.2475 40.3C52.3275 40 52.4342 39.7533 52.5675 39.56C52.7475 39.3067 52.9875 39.1067 53.2875 38.96C53.5942 38.8067 53.8942 38.73 54.1875 38.73C54.3675 38.73 54.5375 38.7667 54.6975 38.84C54.8575 38.9067 54.9975 38.99 55.1175 39.09C55.1175 38.6433 55.1142 38.3633 55.1075 38.25V38.04C55.1075 37.42 55.1475 36.9667 55.2275 36.68C55.3008 36.4 55.4775 36.26 55.7575 36.26C55.9108 36.26 56.0242 36.2933 56.0975 36.36C56.1708 36.4267 56.2075 36.5533 56.2075 36.74ZM53.1275 41.2C53.1275 41.5067 53.2142 41.7533 53.3875 41.94C53.5675 42.1267 53.7808 42.22 54.0275 42.22C54.3808 42.22 54.6408 42.11 54.8075 41.89C54.9808 41.67 55.0675 41.3867 55.0675 41.04L55.0575 40.05C54.7975 39.7633 54.5275 39.62 54.2475 39.62C54.0542 39.62 53.8708 39.67 53.6975 39.77C53.5308 39.8633 53.3975 40.0067 53.2975 40.2C53.1842 40.42 53.1275 40.7533 53.1275 41.2ZM57.6551 40.74C57.6551 40.5 57.6984 40.2767 57.7851 40.07C57.8717 39.8567 57.9984 39.6367 58.1651 39.41C58.3317 39.1833 58.5617 39.0067 58.8551 38.88C59.1484 38.7467 59.4684 38.68 59.8151 38.68C60.0817 38.68 60.3384 38.7367 60.5851 38.85C60.8384 38.9567 61.0651 39.09 61.2651 39.25C61.2917 39.2967 61.3384 39.3833 61.4051 39.51C61.4717 39.63 61.5184 39.74 61.5451 39.84C61.5784 39.94 61.5951 40.0433 61.5951 40.15C61.5951 40.5967 61.4317 40.8967 61.1051 41.05C60.7784 41.1967 60.3651 41.27 59.8651 41.27C59.3651 41.27 58.9584 41.2367 58.6451 41.17C58.6584 41.2967 58.6917 41.4233 58.7451 41.55C58.7984 41.6767 58.8617 41.7733 58.9351 41.84C59.0684 41.9667 59.1984 42.05 59.3251 42.09C59.4584 42.1233 59.6351 42.14 59.8551 42.14C60.1884 42.14 60.4484 42.0767 60.6351 41.95C60.8084 41.8367 60.9417 41.78 61.0351 41.78C61.1617 41.78 61.2584 41.82 61.3251 41.9C61.3917 41.9733 61.4251 42.07 61.4251 42.19C61.4251 42.4433 61.2617 42.65 60.9351 42.81C60.6151 42.97 60.2517 43.05 59.8451 43.05C59.5251 43.05 59.2084 42.9933 58.8951 42.88C58.5817 42.7667 58.3317 42.6067 58.1451 42.4C58.0184 42.1867 57.9051 41.9267 57.8051 41.62C57.7051 41.3133 57.6551 41.02 57.6551 40.74ZM59.8551 39.5C59.7084 39.5 59.5551 39.5267 59.3951 39.58C59.2417 39.6267 59.1217 39.7 59.0351 39.8C58.9284 39.9133 58.8484 40.0167 58.7951 40.11C58.7484 40.2033 58.7184 40.32 58.7051 40.46C58.7784 40.46 58.8484 40.4633 58.9151 40.47C58.9817 40.4767 59.0451 40.4833 59.1051 40.49C59.3984 40.5167 59.6184 40.53 59.7651 40.53C60.0584 40.53 60.2817 40.4867 60.4351 40.4C60.5951 40.3133 60.6751 40.1967 60.6751 40.05C60.6751 39.91 60.5851 39.7833 60.4051 39.67C60.2317 39.5567 60.0484 39.5 59.8551 39.5ZM62.5993 39.49C62.426 39.37 62.3393 39.2433 62.3393 39.11C62.3393 39.0167 62.3793 38.93 62.4593 38.85C62.5393 38.77 62.6593 38.73 62.8193 38.73C63.006 38.73 63.1726 38.78 63.3193 38.88C63.4726 38.9733 63.5793 39.11 63.6393 39.29C63.7926 39.11 63.966 38.9667 64.1593 38.86C64.3593 38.7533 64.5626 38.7 64.7693 38.7C65.016 38.7 65.2393 38.7667 65.4393 38.9C65.6393 39.0333 65.7393 39.2133 65.7393 39.44C65.7393 39.5667 65.6826 39.6967 65.5693 39.83C65.4626 39.9633 65.3526 40.03 65.2393 40.03C65.1793 40.03 65.126 40.0167 65.0793 39.99C65.0393 39.9567 64.9893 39.91 64.9293 39.85C64.8626 39.7833 64.806 39.7367 64.7593 39.71C64.7126 39.6767 64.6593 39.66 64.5993 39.66C64.4926 39.66 64.3926 39.6767 64.2993 39.71C64.206 39.7433 64.1426 39.7833 64.1093 39.83C64.0026 39.9967 63.9226 40.1467 63.8693 40.28C63.8226 40.4133 63.7993 40.5567 63.7993 40.71C63.7993 40.8233 63.796 40.9133 63.7893 40.98L63.7793 41.55C63.7793 41.6367 63.7826 41.7333 63.7893 41.84C63.796 41.9467 63.8026 42.0267 63.8093 42.08C63.8293 42.26 63.8393 42.4333 63.8393 42.6C63.8393 42.7133 63.796 42.8133 63.7093 42.9C63.6226 42.9867 63.516 43.03 63.3893 43.03C63.1893 43.03 63.0426 42.9933 62.9493 42.92C62.856 42.84 62.8093 42.6967 62.8093 42.49L62.7993 41.85C62.7926 41.7233 62.7893 41.5433 62.7893 41.31L62.7993 40.65C62.8126 40.33 62.8193 40.07 62.8193 39.87C62.8193 39.7967 62.8026 39.73 62.7693 39.67C62.7426 39.61 62.686 39.55 62.5993 39.49Z" fill="black"/>
</g>
</g>
<defs>
<filter id="filter0_d_65_9" x="-3" y="0" width="135" height="58" filterUnits="userSpaceOnUse" color-interpolation-filters="sRGB">
<feFlood flood-opacity="0" result="BackgroundImageFix"/>
<feColorMatrix in="SourceAlpha" type="matrix" values="0 0 0 0 0 0 0 0 0 0 0 0 0 0 0 0 0 0 127 0" result="hardAlpha"/>
<feOffset dy="4"/>
<feGaussianBlur stdDeviation="2"/>
<feComposite in2="hardAlpha" operator="out"/>
<feColorMatrix type="matrix" values="0 0 0 0 1 0 0 0 0 1 0 0 0 0 1 0 0 0 1 0"/>
<feBlend mode="normal" in2="BackgroundImageFix" result="effect1_dropShadow_65_9"/>
<feBlend mode="normal" in="SourceGraphic" in2="effect1_dropShadow_65_9" result="shape"/>
</filter>
<filter id="filter1_d_65_9" x="0.540001" y="6.42004" width="43.34" height="47.72" filterUnits="userSpaceOnUse" color-interpolation-filters="sRGB">
<feFlood flood-opacity="0" result="BackgroundImageFix"/>
<feColorMatrix in="SourceAlpha" type="matrix" values="0 0 0 0 0 0 0 0 0 0 0 0 0 0 0 0 0 0 127 0" result="hardAlpha"/>
<feOffset dy="4"/>
<feGaussianBlur stdDeviation="2"/>
<feComposite in2="hardAlpha" operator="out"/>
<feColorMatrix type="matrix" values="0 0 0 0 0 0 0 0 0 0 0 0 0 0 0 0 0 0 0.25 0"/>
<feBlend mode="normal" in2="BackgroundImageFix" result="effect1_dropShadow_65_9"/>
<feBlend mode="normal" in="SourceGraphic" in2="effect1_dropShadow_65_9" result="shape"/>
</filter>
<filter id="filter2_d_65_9" x="31.08" y="16.5" width="94.9066" height="21.76" filterUnits="userSpaceOnUse" color-interpolation-filters="sRGB">
<feFlood flood-opacity="0" result="BackgroundImageFix"/>
<feColorMatrix in="SourceAlpha" type="matrix" values="0 0 0 0 0 0 0 0 0 0 0 0 0 0 0 0 0 0 127 0" result="hardAlpha"/>
<feOffset dy="4"/>
<feGaussianBlur stdDeviation="2"/>
<feComposite in2="hardAlpha" operator="out"/>
<feColorMatrix type="matrix" values="0 0 0 0 0 0 0 0 0 0 0 0 0 0 0 0 0 0 0.25 0"/>
<feBlend mode="normal" in2="BackgroundImageFix" result="effect1_dropShadow_65_9"/>
<feBlend mode="normal" in="SourceGraphic" in2="effect1_dropShadow_65_9" result="shape"/>
</filter>
<filter id="filter3_d_65_9" x="38.45" y="36.26" width="31.2893" height="14.79" filterUnits="userSpaceOnUse" color-interpolation-filters="sRGB">
<feFlood flood-opacity="0" result="BackgroundImageFix"/>
<feColorMatrix in="SourceAlpha" type="matrix" values="0 0 0 0 0 0 0 0 0 0 0 0 0 0 0 0 0 0 127 0" result="hardAlpha"/>
<feOffset dy="4"/>
<feGaussianBlur stdDeviation="2"/>
<feComposite in2="hardAlpha" operator="out"/>
<feColorMatrix type="matrix" values="0 0 0 0 0 0 0 0 0 0 0 0 0 0 0 0 0 0 0.25 0"/>
<feBlend mode="normal" in2="BackgroundImageFix" result="effect1_dropShadow_65_9"/>
<feBlend mode="normal" in="SourceGraphic" in2="effect1_dropShadow_65_9" result="shape"/>
</filter>
</defs>
</svg>
