<svg width="125" height="54" viewBox="0 0 125 54" fill="none" xmlns="http://www.w3.org/2000/svg">
<g filter="url(#filter0_d_81_18)">
<path d="M33.08 23.16C33.5467 23.2 33.9533 23.3267 34.3 23.54C34.6467 23.74 34.82 24.0467 34.82 24.46C34.82 24.7667 34.6733 25.0133 34.38 25.2C34.1 25.3733 33.76 25.46 33.36 25.46C32.9733 25.46 32.7067 25.36 32.56 25.16C32.4133 24.96 32.34 24.7533 32.34 24.54C32.34 24.14 32.38 23.8067 32.46 23.54C32.5533 23.2733 32.76 23.1467 33.08 23.16ZM34.68 32.02V32.6C34.68 33.12 34.6933 33.6133 34.72 34.08C34.76 34.5333 34.8067 34.9933 34.86 35.46C34.8467 35.5933 34.7467 35.7333 34.56 35.88C34.3733 36.0133 34.2067 36.08 34.06 36.08C33.8067 36.08 33.5467 36.0333 33.28 35.94C33.0267 35.8333 32.8733 35.7067 32.82 35.56C32.74 35.1333 32.7 34.7533 32.7 34.42C32.7 33.3267 32.6667 32.1 32.6 30.74C32.5467 29.54 32.52 28.7 32.52 28.22C32.52 27.98 32.64 27.7733 32.88 27.6C33.12 27.4267 33.3733 27.34 33.64 27.34C34.0267 27.34 34.2933 27.4267 34.44 27.6C34.6 27.7733 34.68 28.0467 34.68 28.42V32.02ZM49.7972 35.3C49.5972 34.9267 49.4705 34.5133 49.4172 34.06C49.3639 33.5933 49.3372 32.9533 49.3372 32.14C49.3372 31.3667 49.2305 30.6933 49.0172 30.12C48.8039 29.5467 48.3639 29.26 47.6972 29.26C47.4439 29.26 47.1905 29.34 46.9372 29.5C46.6972 29.6467 46.5172 29.8333 46.3972 30.06C46.2105 30.42 46.0839 30.8133 46.0172 31.24C45.9505 31.6533 45.9172 32.1333 45.9172 32.68C45.9172 33.0267 45.9372 33.38 45.9772 33.74C45.9772 33.8467 45.9839 34.02 45.9972 34.26C46.0239 34.4867 46.0372 34.6933 46.0372 34.88C46.0372 35.68 45.7572 36.08 45.1972 36.08C44.4639 36.08 44.0772 35.6933 44.0372 34.92C44.0372 34.3733 44.0439 34.08 44.0572 34.04V33.18C44.0572 32.7 44.0372 32.2333 43.9972 31.78C43.9572 31.3267 43.9105 30.9867 43.8572 30.76C43.7372 30.32 43.5772 29.98 43.3772 29.74C43.1905 29.5 42.8905 29.38 42.4772 29.38C41.8905 29.38 41.4172 29.6333 41.0572 30.14C40.8039 30.54 40.6372 31.0267 40.5572 31.6C40.4772 32.3333 40.4172 32.9133 40.3772 33.34C40.3505 33.7533 40.3372 34.2333 40.3372 34.78C40.3372 35.1667 40.2705 35.48 40.1372 35.72C40.0172 35.96 39.7839 36.08 39.4372 36.08C39.1839 36.08 38.9172 36.0133 38.6372 35.88C38.3705 35.7333 38.2372 35.54 38.2372 35.3C38.2372 35.0467 38.2639 34.7933 38.3172 34.54C38.4372 33.78 38.4972 32.42 38.4972 30.46C38.4972 30.14 38.4172 29.8333 38.2572 29.54C38.1105 29.2333 37.9305 29.08 37.7172 29.08C37.6639 29.08 37.5639 29.1067 37.4172 29.16C37.2839 29.2133 37.1839 29.24 37.1172 29.24C36.9439 29.24 36.7839 29.16 36.6372 29C36.5039 28.84 36.4372 28.7067 36.4372 28.6C36.4372 28.2667 36.5972 27.9867 36.9172 27.76C37.2505 27.52 37.5972 27.4 37.9572 27.4C38.4505 27.4 38.8705 27.5533 39.2172 27.86C39.5639 28.1667 39.8305 28.5933 40.0172 29.14C40.3239 28.6067 40.7372 28.18 41.2572 27.86C41.7772 27.5267 42.3572 27.36 42.9972 27.36C43.3972 27.36 43.7172 27.4133 43.9572 27.52C44.2105 27.6133 44.4172 27.7533 44.5772 27.94C44.7372 28.1133 44.9439 28.38 45.1972 28.74C45.5305 28.3133 45.9572 27.98 46.4772 27.74C47.0105 27.5 47.5572 27.38 48.1172 27.38C48.7839 27.38 49.3839 27.6533 49.9172 28.2C50.4505 28.7333 50.8105 29.3533 50.9972 30.06C51.0905 30.42 51.1372 31.1133 51.1372 32.14L51.2172 33.3C51.2839 33.9933 51.5105 34.4133 51.8972 34.56C52.3505 34.6933 52.5772 34.8333 52.5772 34.98C52.5772 35.3 52.4972 35.5333 52.3372 35.68C52.2172 35.76 52.0505 35.8467 51.8372 35.94C51.6239 36.0333 51.4572 36.08 51.3372 36.08C50.6172 36.08 50.1039 35.82 49.7972 35.3ZM54.4736 32.4C54.4736 31.6533 54.4803 31.0867 54.4936 30.7L54.5136 28.8C54.5136 28.0267 54.4936 27.18 54.4536 26.26C54.4403 25.98 54.3936 25.5933 54.3136 25.1C54.2069 24.3533 54.1536 23.7933 54.1536 23.42C54.1536 22.8067 54.4603 22.5 55.0736 22.5C55.4603 22.5 55.7336 22.6067 55.8936 22.82C56.0669 23.02 56.1869 23.34 56.2536 23.78C56.3869 24.7 56.4536 25.78 56.4536 27.02C56.4536 27.3933 56.4403 27.9533 56.4136 28.7C56.6669 28.3 56.9936 27.9867 57.3936 27.76C57.8069 27.5333 58.2136 27.42 58.6136 27.42C59.7736 27.42 60.7736 27.9 61.6136 28.86C61.8403 29.1933 62.0403 29.5933 62.2136 30.06C62.4003 30.5133 62.4936 30.9067 62.4936 31.24C62.4936 31.8267 62.4269 32.3667 62.2936 32.86C62.1736 33.3533 61.9536 33.8333 61.6336 34.3C61.3136 34.7667 60.9069 35.1467 60.4136 35.44C59.9336 35.7333 59.3736 35.88 58.7336 35.88C58.1736 35.88 57.6669 35.7667 57.2136 35.54C56.7736 35.3133 56.4203 35.0133 56.1536 34.64C56.0869 34.9733 55.9403 35.3067 55.7136 35.64C55.4869 35.96 55.2269 36.12 54.9336 36.12C54.6936 36.12 54.4936 36.06 54.3336 35.94C54.1736 35.8067 54.0936 35.6133 54.0936 35.36C54.0936 35.1733 54.1336 34.94 54.2136 34.66C54.2936 34.2733 54.3536 33.92 54.3936 33.6C54.4469 33.2667 54.4736 32.8667 54.4736 32.4ZM58.2336 34.22C58.8869 34.22 59.4336 33.9933 59.8736 33.54C60.3136 33.0733 60.5336 32.4467 60.5336 31.66C60.5336 30.94 60.3403 30.32 59.9536 29.8C59.8203 29.6267 59.6269 29.4867 59.3736 29.38C59.1336 29.2733 58.8936 29.22 58.6536 29.22C58.0936 29.22 57.6203 29.3867 57.2336 29.72C56.8469 30.04 56.6269 30.4867 56.5736 31.06C56.5203 31.8333 56.4936 32.5 56.4936 33.06C56.6536 33.3667 56.8936 33.64 57.2136 33.88C57.5469 34.1067 57.8869 34.22 58.2336 34.22ZM65.2442 27.32C66.1242 27.32 66.5642 27.9 66.5642 29.06C66.5642 29.2067 66.5509 29.5333 66.5242 30.04C66.4976 30.6267 66.4842 31.0867 66.4842 31.42C66.4842 32.3533 66.6109 33.1067 66.8642 33.68C66.9576 33.8667 67.1242 34.0133 67.3642 34.12C67.6176 34.2267 67.8309 34.28 68.0042 34.28C68.2709 34.28 68.4909 34.2467 68.6642 34.18C68.8376 34.1133 68.9976 34.0133 69.1442 33.88C69.3042 33.7467 69.4576 33.6 69.6042 33.44C69.8576 33.16 70.0176 32.84 70.0842 32.48C70.1642 32.1067 70.2109 31.6133 70.2242 31C70.2242 30.6133 70.2442 30.24 70.2842 29.88C70.3642 29.2933 70.4042 28.7467 70.4042 28.24C70.4042 27.96 70.4776 27.7267 70.6242 27.54C70.7842 27.34 71.0109 27.24 71.3042 27.24C71.4509 27.24 71.6242 27.2933 71.8242 27.4C72.0376 27.4933 72.1776 27.6 72.2442 27.72C72.3376 27.88 72.3842 28.1 72.3842 28.38C72.3842 28.5533 72.3642 28.7133 72.3242 28.86C72.2576 29.06 72.2242 29.3133 72.2242 29.62C72.2242 29.78 72.2376 30.0467 72.2642 30.42C72.3042 30.7 72.3242 30.9867 72.3242 31.28C72.3242 32.1733 72.3909 32.8333 72.5242 33.26C72.6709 33.7133 72.8709 34.1133 73.1242 34.46C73.3909 34.74 73.5709 34.9467 73.6642 35.08C73.7576 35.2 73.8042 35.3067 73.8042 35.4C73.8042 35.56 73.7242 35.7133 73.5642 35.86C73.4042 36.0067 73.2376 36.08 73.0642 36.08C72.5709 36.08 72.1376 35.9133 71.7642 35.58C71.4042 35.2333 71.1376 34.7933 70.9642 34.26C70.8176 34.4333 70.6242 34.6467 70.3842 34.9C70.1442 35.1533 69.9176 35.36 69.7042 35.52C69.1842 35.8933 68.5176 36.08 67.7042 36.08C67.3709 36.08 67.0042 35.98 66.6042 35.78C66.2176 35.58 65.8642 35.32 65.5442 35C65.2242 34.6667 65.0042 34.3133 64.8842 33.94C64.8709 33.9133 64.8309 33.8067 64.7642 33.62C64.7109 33.4333 64.6842 33.1533 64.6842 32.78L64.6642 29.58C64.6642 29.3933 64.6176 29.1 64.5242 28.7C64.4442 28.4333 64.4042 28.2333 64.4042 28.1C64.4042 27.8733 64.4776 27.6867 64.6242 27.54C64.7842 27.3933 64.9909 27.32 65.2442 27.32ZM76.8422 36.08C76.5755 36.08 76.3489 36.0333 76.1622 35.94C75.9755 35.8467 75.8622 35.7467 75.8222 35.64C75.6755 35.1067 75.6022 34.4067 75.6022 33.54C75.6022 31.94 75.6289 30.64 75.6822 29.64C75.7355 28.4533 75.7622 27.3133 75.7622 26.22C75.7622 25.9 75.7222 25.4333 75.6422 24.82C75.6289 24.7133 75.6089 24.52 75.5822 24.24C75.5555 23.96 75.5422 23.7 75.5422 23.46C75.5422 23.1667 75.6422 22.9333 75.8422 22.76C76.0555 22.5867 76.3289 22.5 76.6622 22.5C76.9289 22.5 77.1422 22.5867 77.3022 22.76C77.4755 22.92 77.5622 23.14 77.5622 23.42C77.5622 23.8467 77.5755 24.4467 77.6022 25.22C77.6289 25.94 77.6422 26.48 77.6422 26.84C77.6422 27.24 77.6289 27.7733 77.6022 28.44C77.5755 28.84 77.5622 29.1333 77.5622 29.32C77.5622 29.9067 77.5689 30.3933 77.5822 30.78C78.0755 30.2867 78.7222 29.7067 79.5222 29.04C80.3222 28.3733 80.9422 27.9067 81.3822 27.64C81.8489 27.36 82.1555 27.22 82.3022 27.22C82.5822 27.22 82.8222 27.28 83.0222 27.4C83.2222 27.52 83.3222 27.6933 83.3222 27.92C83.3222 28.1467 83.2889 28.3267 83.2222 28.46C83.1555 28.5933 83.0355 28.7267 82.8622 28.86L80.6022 30.52C80.8289 30.6133 81.0422 30.82 81.2422 31.14C81.4555 31.46 81.7089 31.8933 82.0022 32.44C82.3355 33.0667 82.6089 33.5333 82.8222 33.84C83.0489 34.1467 83.2755 34.3 83.5022 34.3L84.0022 34.28C84.0955 34.28 84.1755 34.3333 84.2422 34.44C84.3222 34.5467 84.3622 34.7 84.3622 34.9C84.3622 35.2067 84.2089 35.4533 83.9022 35.64C83.6089 35.8267 83.2755 35.92 82.9022 35.92C82.3822 35.92 81.9222 35.72 81.5222 35.32C81.1222 34.9067 80.7422 34.3533 80.3822 33.66L79.9422 32.78C79.7555 32.4067 79.6089 32.14 79.5022 31.98C79.4089 31.82 79.2955 31.7133 79.1622 31.66L77.5622 32.94L77.6422 35.12C77.6422 35.4667 77.5489 35.7133 77.3622 35.86C77.1889 36.0067 77.0155 36.08 76.8422 36.08ZM85.6342 29.08C85.4476 29.0533 85.2942 28.9733 85.1742 28.84C85.0676 28.7067 85.0142 28.5467 85.0142 28.36C85.0142 28.2667 85.0342 28.1667 85.0742 28.06C85.1276 27.9533 85.2009 27.86 85.2942 27.78C85.4676 27.6067 85.9342 27.52 86.6942 27.52C86.8009 27 86.8542 26.4733 86.8542 25.94C86.8542 25.74 86.8476 25.5667 86.8342 25.42C86.8209 25.2733 86.8142 25.16 86.8142 25.08C86.8142 24.7867 86.9209 24.5667 87.1342 24.42C87.3609 24.2733 87.6142 24.2 87.8942 24.2C88.2409 24.2 88.4742 24.2867 88.5942 24.46C88.7276 24.6333 88.7942 24.9533 88.7942 25.42C88.7942 26.1133 88.7342 26.7933 88.6142 27.46C88.8276 27.46 89.1209 27.4467 89.4942 27.42C90.0009 27.3933 90.3676 27.38 90.5942 27.38C90.8209 27.38 91.0142 27.44 91.1742 27.56C91.3476 27.6667 91.4342 27.82 91.4342 28.02C91.4342 28.54 91.2009 28.8467 90.7342 28.94C90.2409 29.06 89.4742 29.1333 88.4342 29.16C88.3942 29.68 88.3742 30.2467 88.3742 30.86C88.3742 31.82 88.4342 32.6067 88.5542 33.22C88.6342 33.6467 88.7676 33.96 88.9542 34.16C89.1542 34.3467 89.4476 34.44 89.8342 34.44C90.0609 34.44 90.2942 34.38 90.5342 34.26C90.6942 34.1667 90.8409 34.12 90.9742 34.12C91.1609 34.12 91.2942 34.18 91.3742 34.3C91.4676 34.42 91.5142 34.58 91.5142 34.78C91.5142 35.1533 91.3142 35.4667 90.9142 35.72C90.5142 35.96 90.0009 36.08 89.3742 36.08C88.9876 36.08 88.5942 35.9867 88.1942 35.8C87.8076 35.6133 87.4809 35.38 87.2142 35.1C87.1742 35.06 87.1009 34.9067 86.9942 34.64C86.8876 34.3733 86.7942 34.0867 86.7142 33.78C86.5809 33.1533 86.5142 32.2733 86.5142 31.14C86.5142 30.6467 86.5409 29.9867 86.5942 29.16L85.6342 29.08ZM92.9338 29.26C92.8271 29.26 92.7338 29.22 92.6538 29.14C92.5738 29.0467 92.5338 28.94 92.5338 28.82C92.5338 28.4333 92.6604 28.14 92.9138 27.94C93.1671 27.7267 93.4804 27.62 93.8538 27.62C94.3738 27.62 94.8204 27.76 95.1938 28.04C95.5804 28.3067 95.7738 28.6933 95.7738 29.2C95.7738 29.3333 95.7471 29.84 95.6938 30.72C95.6404 31.7333 95.6138 32.4067 95.6138 32.74C95.6138 33.2067 95.7004 33.5867 95.8738 33.88C96.0604 34.16 96.3471 34.3 96.7338 34.3C97.4804 34.3 98.0538 33.8867 98.4538 33.06C98.8671 32.22 99.1404 31.1933 99.2738 29.98C99.3271 29.4467 99.4071 28.8867 99.5138 28.3C99.5671 27.98 99.6404 27.7467 99.7338 27.6C99.8271 27.4533 100.007 27.38 100.274 27.38C100.447 27.38 100.647 27.42 100.874 27.5C101.114 27.58 101.267 27.6867 101.334 27.82C101.414 28.02 101.454 28.24 101.454 28.48C101.454 28.8133 101.407 29.2467 101.314 29.78C101.207 30.3133 101.134 30.8933 101.094 31.52C101.067 32.08 101.154 32.6667 101.354 33.28C101.554 33.8933 101.84 34.2933 102.214 34.48C102.64 34.6933 102.854 34.8867 102.854 35.06C102.854 35.34 102.754 35.56 102.554 35.72C102.354 35.88 102.16 35.96 101.974 35.96C101.48 35.96 101.034 35.78 100.634 35.42C100.247 35.06 99.9671 34.6133 99.7938 34.08C99.5138 34.5067 99.2404 34.86 98.9738 35.14C98.7204 35.4067 98.3938 35.6333 97.9938 35.82C97.5938 35.9933 97.1004 36.08 96.5138 36.08C95.8204 36.08 95.1871 35.8333 94.6138 35.34C94.0538 34.8467 93.7738 34 93.7738 32.8C93.7738 32.4667 93.7804 32.1133 93.7938 31.74C93.8204 31.3667 93.8338 31.1 93.8338 30.94C93.8738 30.46 93.8938 30.02 93.8938 29.62C93.8938 29.5 93.8471 29.4 93.7538 29.32C93.6738 29.24 93.5804 29.2 93.4738 29.2C93.3938 29.2 93.3004 29.2133 93.1938 29.24C93.1004 29.2533 93.0138 29.26 92.9338 29.26Z" fill="black"/>
</g>
<g filter="url(#filter1_d_81_18)">
<path d="M34.82 15.06C34.42 15.06 33.96 15.06 33.44 15.06C32.92 15.02 32.32 14.98 31.64 14.94C30.48 14.9 29.42 14.88 28.46 14.88C27.5 14.84 26.86 14.78 26.54 14.7V19.26C25.98 19.7 25.58 20.58 25.34 21.9C25.02 25.86 24.82 29.04 24.74 31.44C24.66 33.8 24.64 35.64 24.68 36.96C24.72 37.76 24.76 38.44 24.8 39C24.84 39.52 24.9 39.94 24.98 40.26L25.64 43.44L25.34 43.92L18.08 45.54H17.9C17.82 45.54 17.72 45.56 17.6 45.6C17.52 45.6 17.44 45.6 17.36 45.6L15.38 44.22C15.38 44.18 15.4 44.16 15.44 44.16C15.48 44.12 15.52 44.06 15.56 43.98C15.6 43.86 15.64 43.68 15.68 43.44C15.72 43.16 15.74 42.78 15.74 42.3C15.74 41.9 15.74 41.62 15.74 41.46C15.78 41.3 15.76 41.04 15.68 40.68C15.6 40.2 15.6 39.12 15.68 37.44C15.72 35.76 15.44 34.92 14.84 34.92C14.92 34.48 14.96 33.96 14.96 33.36C15 32.76 15.04 32.2 15.08 31.68C15.12 31.36 15.14 31.06 15.14 30.78C15.14 30.46 15.14 30.14 15.14 29.82C15.18 29.78 15.2 29.74 15.2 29.7C15.24 29.66 15.28 29.62 15.32 29.58L15.38 29.52C15.58 29.2 15.68 28.96 15.68 28.8C15.68 28.6 15.76 28.16 15.92 27.48V24.9C16.68 25.02 16.84 24.38 16.4 22.98C16.04 21.46 15.98 20.7 16.22 20.7C16.34 20.18 16.46 19.58 16.58 18.9C16.66 18.34 16.74 17.74 16.82 17.1C16.9 16.42 16.98 15.74 17.06 15.06L16.82 14.88C16.54 15.12 16.2 15.2 15.8 15.12C15.44 15.04 15.1 14.98 14.78 14.94C13.86 15.06 13.08 15.16 12.44 15.24C11.8 15.32 11.28 15.46 10.88 15.66C10.64 15.74 10.42 15.8 10.22 15.84C10.02 15.88 9.92 16.16 9.92 16.68L6.5 17.4L5.42 16.62C5.26 16.22 5.12 15.84 5 15.48C4.88 15.08 4.8 14.6 4.76 14.04L5.48 12.3C6.04 12.22 6.48 12.18 6.8 12.18C7.16 12.18 7.42 12.2 7.58 12.24C7.78 12.24 7.92 12.26 8 12.3C8.08 12.34 8.16 12.36 8.24 12.36C8.68 12.16 9.14 11.98 9.62 11.82C10.1 11.62 10.66 11.44 11.3 11.28C11.98 11.12 12.76 10.98 13.64 10.86C14.56 10.7 15.66 10.54 16.94 10.38L22.4 10.14L23 10.62C23.2 10.74 23.42 10.86 23.66 10.98C23.9 11.06 24.14 11.1 24.38 11.1C24.66 11.14 24.92 11.04 25.16 10.8C25.24 10.72 25.32 10.6 25.4 10.44C25.72 10.36 26.24 10.36 26.96 10.44C27.72 10.48 28.86 10.62 30.38 10.86C33.02 11.3 34.76 11.54 35.6 11.58L35.96 12.18V14.16L34.82 15.06Z" fill="black"/>
</g>
<defs>
<filter id="filter0_d_81_18" x="28.34" y="22.5" width="78.5138" height="21.62" filterUnits="userSpaceOnUse" color-interpolation-filters="sRGB">
<feFlood flood-opacity="0" result="BackgroundImageFix"/>
<feColorMatrix in="SourceAlpha" type="matrix" values="0 0 0 0 0 0 0 0 0 0 0 0 0 0 0 0 0 0 127 0" result="hardAlpha"/>
<feOffset dy="4"/>
<feGaussianBlur stdDeviation="2"/>
<feComposite in2="hardAlpha" operator="out"/>
<feColorMatrix type="matrix" values="0 0 0 0 0 0 0 0 0 0 0 0 0 0 0 0 0 0 0.25 0"/>
<feBlend mode="normal" in2="BackgroundImageFix" result="effect1_dropShadow_81_18"/>
<feBlend mode="normal" in="SourceGraphic" in2="effect1_dropShadow_81_18" result="shape"/>
</filter>
<filter id="filter1_d_81_18" x="0.760002" y="10.14" width="39.2" height="43.46" filterUnits="userSpaceOnUse" color-interpolation-filters="sRGB">
<feFlood flood-opacity="0" result="BackgroundImageFix"/>
<feColorMatrix in="SourceAlpha" type="matrix" values="0 0 0 0 0 0 0 0 0 0 0 0 0 0 0 0 0 0 127 0" result="hardAlpha"/>
<feOffset dy="4"/>
<feGaussianBlur stdDeviation="2"/>
<feComposite in2="hardAlpha" operator="out"/>
<feColorMatrix type="matrix" values="0 0 0 0 0 0 0 0 0 0 0 0 0 0 0 0 0 0 0.25 0"/>
<feBlend mode="normal" in2="BackgroundImageFix" result="effect1_dropShadow_81_18"/>
<feBlend mode="normal" in="SourceGraphic" in2="effect1_dropShadow_81_18" result="shape"/>
</filter>
</defs>
</svg>
